<mxfile host="app.diagrams.net" modified="2024-06-27T05:52:36.003Z" agent="Mozilla/5.0 (Windows NT 10.0; Win64; x64) AppleWebKit/537.36 (KHTML, like Gecko) Chrome/126.0.0.0 Safari/537.36" etag="m6-OSg4ST5Y_PEhYPSJ1" version="24.6.3" type="github">
  <diagram id="6I0OCvxSQrVGMHxT2VVA" name="Page-1">
    <mxGraphModel dx="1434" dy="746" grid="1" gridSize="14" guides="1" tooltips="1" connect="1" arrows="1" fold="1" page="1" pageScale="1" pageWidth="1700" pageHeight="1100" math="0" shadow="0">
      <root>
        <mxCell id="0" />
        <mxCell id="1" parent="0" />
        <mxCell id="bp33T2_yUDZPxfWXAxRo-1" value="" style="shape=table;startSize=0;container=1;collapsible=0;childLayout=tableLayout;fontSize=16;" vertex="1" parent="1">
          <mxGeometry x="277" y="392" width="610" height="180" as="geometry" />
        </mxCell>
        <mxCell id="bp33T2_yUDZPxfWXAxRo-2" value="" style="shape=tableRow;horizontal=0;startSize=0;swimlaneHead=0;swimlaneBody=0;strokeColor=inherit;top=0;left=0;bottom=0;right=0;collapsible=0;dropTarget=0;fillColor=none;points=[[0,0.5],[1,0.5]];portConstraint=eastwest;fontSize=16;" vertex="1" parent="bp33T2_yUDZPxfWXAxRo-1">
          <mxGeometry width="610" height="60" as="geometry" />
        </mxCell>
        <mxCell id="bp33T2_yUDZPxfWXAxRo-3" value="" style="shape=partialRectangle;html=1;whiteSpace=wrap;connectable=0;strokeColor=inherit;overflow=hidden;fillColor=none;top=0;left=0;bottom=0;right=0;pointerEvents=1;fontSize=16;" vertex="1" parent="bp33T2_yUDZPxfWXAxRo-2">
          <mxGeometry width="203" height="60" as="geometry">
            <mxRectangle width="203" height="60" as="alternateBounds" />
          </mxGeometry>
        </mxCell>
        <mxCell id="bp33T2_yUDZPxfWXAxRo-4" value="高唤醒" style="shape=partialRectangle;html=1;whiteSpace=wrap;connectable=0;strokeColor=inherit;overflow=hidden;fillColor=none;top=0;left=0;bottom=0;right=0;pointerEvents=1;fontSize=16;" vertex="1" parent="bp33T2_yUDZPxfWXAxRo-2">
          <mxGeometry x="203" width="204" height="60" as="geometry">
            <mxRectangle width="204" height="60" as="alternateBounds" />
          </mxGeometry>
        </mxCell>
        <mxCell id="bp33T2_yUDZPxfWXAxRo-5" value="低唤醒" style="shape=partialRectangle;html=1;whiteSpace=wrap;connectable=0;strokeColor=inherit;overflow=hidden;fillColor=none;top=0;left=0;bottom=0;right=0;pointerEvents=1;fontSize=16;" vertex="1" parent="bp33T2_yUDZPxfWXAxRo-2">
          <mxGeometry x="407" width="203" height="60" as="geometry">
            <mxRectangle width="203" height="60" as="alternateBounds" />
          </mxGeometry>
        </mxCell>
        <mxCell id="bp33T2_yUDZPxfWXAxRo-6" value="" style="shape=tableRow;horizontal=0;startSize=0;swimlaneHead=0;swimlaneBody=0;strokeColor=inherit;top=0;left=0;bottom=0;right=0;collapsible=0;dropTarget=0;fillColor=none;points=[[0,0.5],[1,0.5]];portConstraint=eastwest;fontSize=16;" vertex="1" parent="bp33T2_yUDZPxfWXAxRo-1">
          <mxGeometry y="60" width="610" height="60" as="geometry" />
        </mxCell>
        <mxCell id="bp33T2_yUDZPxfWXAxRo-7" value="积极" style="shape=partialRectangle;html=1;whiteSpace=wrap;connectable=0;strokeColor=inherit;overflow=hidden;fillColor=none;top=0;left=0;bottom=0;right=0;pointerEvents=1;fontSize=16;" vertex="1" parent="bp33T2_yUDZPxfWXAxRo-6">
          <mxGeometry width="203" height="60" as="geometry">
            <mxRectangle width="203" height="60" as="alternateBounds" />
          </mxGeometry>
        </mxCell>
        <mxCell id="bp33T2_yUDZPxfWXAxRo-8" value="敬畏 消遣 兴奋" style="shape=partialRectangle;html=1;whiteSpace=wrap;connectable=0;strokeColor=inherit;overflow=hidden;fillColor=none;top=0;left=0;bottom=0;right=0;pointerEvents=1;fontSize=16;" vertex="1" parent="bp33T2_yUDZPxfWXAxRo-6">
          <mxGeometry x="203" width="204" height="60" as="geometry">
            <mxRectangle width="204" height="60" as="alternateBounds" />
          </mxGeometry>
        </mxCell>
        <mxCell id="bp33T2_yUDZPxfWXAxRo-9" value="满足" style="shape=partialRectangle;html=1;whiteSpace=wrap;connectable=0;strokeColor=inherit;overflow=hidden;fillColor=none;top=0;left=0;bottom=0;right=0;pointerEvents=1;fontSize=16;" vertex="1" parent="bp33T2_yUDZPxfWXAxRo-6">
          <mxGeometry x="407" width="203" height="60" as="geometry">
            <mxRectangle width="203" height="60" as="alternateBounds" />
          </mxGeometry>
        </mxCell>
        <mxCell id="bp33T2_yUDZPxfWXAxRo-10" value="" style="shape=tableRow;horizontal=0;startSize=0;swimlaneHead=0;swimlaneBody=0;strokeColor=inherit;top=0;left=0;bottom=0;right=0;collapsible=0;dropTarget=0;fillColor=none;points=[[0,0.5],[1,0.5]];portConstraint=eastwest;fontSize=16;" vertex="1" parent="bp33T2_yUDZPxfWXAxRo-1">
          <mxGeometry y="120" width="610" height="60" as="geometry" />
        </mxCell>
        <mxCell id="bp33T2_yUDZPxfWXAxRo-11" value="消极" style="shape=partialRectangle;html=1;whiteSpace=wrap;connectable=0;strokeColor=inherit;overflow=hidden;fillColor=none;top=0;left=0;bottom=0;right=0;pointerEvents=1;fontSize=16;" vertex="1" parent="bp33T2_yUDZPxfWXAxRo-10">
          <mxGeometry width="203" height="60" as="geometry">
            <mxRectangle width="203" height="60" as="alternateBounds" />
          </mxGeometry>
        </mxCell>
        <mxCell id="bp33T2_yUDZPxfWXAxRo-12" value="生气 担忧" style="shape=partialRectangle;html=1;whiteSpace=wrap;connectable=0;strokeColor=inherit;overflow=hidden;fillColor=none;top=0;left=0;bottom=0;right=0;pointerEvents=1;fontSize=16;" vertex="1" parent="bp33T2_yUDZPxfWXAxRo-10">
          <mxGeometry x="203" width="204" height="60" as="geometry">
            <mxRectangle width="204" height="60" as="alternateBounds" />
          </mxGeometry>
        </mxCell>
        <mxCell id="bp33T2_yUDZPxfWXAxRo-13" value="悲伤" style="shape=partialRectangle;html=1;whiteSpace=wrap;connectable=0;strokeColor=inherit;overflow=hidden;fillColor=none;top=0;left=0;bottom=0;right=0;pointerEvents=1;fontSize=16;" vertex="1" parent="bp33T2_yUDZPxfWXAxRo-10">
          <mxGeometry x="407" width="203" height="60" as="geometry">
            <mxRectangle width="203" height="60" as="alternateBounds" />
          </mxGeometry>
        </mxCell>
        <mxCell id="bp33T2_yUDZPxfWXAxRo-14" value="链式传播：人传人" style="text;strokeColor=none;fillColor=none;html=1;fontSize=24;fontStyle=1;verticalAlign=middle;align=center;" vertex="1" parent="1">
          <mxGeometry x="532" y="28" width="100" height="40" as="geometry" />
        </mxCell>
        <mxCell id="bp33T2_yUDZPxfWXAxRo-15" value="&lt;ol&gt;&lt;li style=&quot;box-sizing: border-box;&quot;&gt;&lt;font style=&quot;font-size: 14px;&quot;&gt;&lt;span style=&quot;box-sizing: border-box; font-weight: bolder; background-color: rgba(255, 254, 213, 0.5);&quot;&gt;社交货币（Social Currency）&lt;/span&gt;：在社交中，人们用谈论的话题向身边朋友炫耀身份、构建他们渴望的形象。构造符合这一需求的内容就更容易获得传播&lt;/font&gt;&lt;/li&gt;&lt;li style=&quot;box-sizing: border-box;&quot;&gt;&lt;font size=&quot;3&quot; style=&quot;&quot;&gt;&lt;span style=&quot;box-sizing: border-box; font-weight: bolder; background-color: rgba(255, 254, 213, 0.5);&quot;&gt;诱因（Triggers）&lt;/span&gt;：可以设计一种在特定环境下能够激活顾客内心的产品与思想的触发器。一旦人们碰到，就会联想起我们的产品和思想&lt;/font&gt;&lt;/li&gt;&lt;li style=&quot;box-sizing: border-box;&quot;&gt;&lt;font size=&quot;3&quot;&gt;&lt;span style=&quot;box-sizing: border-box; font-weight: bolder; background-color: rgba(255, 254, 213, 0.5);&quot;&gt;情绪（Emotion）&lt;/span&gt;：高唤醒情绪更容易刺激传播，包括惊奇/敬畏、幽默/搞笑、欣喜/欢乐，以及愤怒和焦虑&lt;/font&gt;&lt;/li&gt;&lt;li style=&quot;box-sizing: border-box;&quot;&gt;&lt;font size=&quot;3&quot;&gt;&lt;span style=&quot;box-sizing: border-box; font-weight: bolder; background-color: rgba(255, 254, 213, 0.5);&quot;&gt;公开性（Public）&lt;/span&gt;：看不到的事物不会被轻易模仿，更不可能变得流行。设计一些具备公共传播属性的产品和思想&lt;/font&gt;&lt;/li&gt;&lt;li style=&quot;box-sizing: border-box;&quot;&gt;&lt;font size=&quot;3&quot;&gt;&lt;span style=&quot;box-sizing: border-box; font-weight: bolder; background-color: rgba(255, 254, 213, 0.5);&quot;&gt;实用价值（Practical Value）&lt;/span&gt;：人天然具有互助倾向，只要产品或思想能够节省时间或者金钱，帮助个人提升，就会被大力传播&lt;/font&gt;&lt;/li&gt;&lt;li style=&quot;box-sizing: border-box;&quot;&gt;&lt;font size=&quot;3&quot;&gt;&lt;span style=&quot;box-sizing: border-box; font-weight: bolder; background-color: rgba(255, 254, 213, 0.5);&quot;&gt;故事（Stories）&lt;/span&gt;：故事的魅力来自基因。包裹在吸引人的故事中的产品或理念更容易传播&lt;/font&gt;&lt;/li&gt;&lt;/ol&gt;" style="text;strokeColor=none;fillColor=none;html=1;whiteSpace=wrap;verticalAlign=middle;overflow=hidden;" vertex="1" parent="1">
          <mxGeometry x="168" y="112" width="938" height="224" as="geometry" />
        </mxCell>
      </root>
    </mxGraphModel>
  </diagram>
</mxfile>
